<?xml version="1.0" standalone="no"?>
<!DOCTYPE svg PUBLIC "-//W3C//DTD SVG 20010904//EN"
 "http://www.w3.org/TR/2001/REC-SVG-20010904/DTD/svg10.dtd">
<svg version="1.0" xmlns="http://www.w3.org/2000/svg"
 width="520.000000pt" height="176.000000pt" viewBox="0 0 520.000000 176.000000"
 preserveAspectRatio="xMidYMid meet">
<metadata>
Created by potrace 1.15, written by Peter Selinger 2001-2017
</metadata>
<g transform="translate(0.000000,176.000000) scale(0.100000,-0.100000)"
fill="#000000" stroke="none">
<path d="M3255 1568 c-2 -7 -63 -263 -135 -568 -72 -305 -134 -565 -137 -577
-5 -22 -3 -23 76 -23 45 0 81 2 81 5 0 2 63 266 140 586 77 320 140 584 140
586 0 1 -36 3 -80 3 -56 0 -82 -4 -85 -12z"/>
<path d="M190 995 l0 -575 263 0 c295 0 360 9 458 61 33 18 78 53 100 78 46
52 101 161 120 241 20 81 18 318 -4 400 -54 204 -181 332 -357 360 -36 5 -181
10 -322 10 l-258 0 0 -575z m568 360 c56 -23 105 -82 128 -153 27 -82 27 -342
1 -422 -24 -71 -58 -115 -110 -142 -37 -20 -61 -23 -199 -26 l-158 -4 0 387 0
387 148 -4 c109 -4 158 -9 190 -23z"/>
<path d="M3530 995 l0 -575 115 0 115 0 0 575 0 575 -115 0 -115 0 0 -575z"/>
<path d="M3980 995 l0 -575 115 0 115 0 0 240 0 240 58 0 c84 0 132 -17 174
-61 20 -21 94 -124 164 -229 l128 -190 138 0 138 0 -42 67 c-177 285 -213 334
-300 403 l-47 38 46 11 c158 40 246 147 247 301 1 183 -91 290 -275 319 -35 6
-198 11 -361 11 l-298 0 0 -575z m626 365 c73 -36 97 -132 51 -201 -39 -57
-62 -63 -264 -67 l-183 -4 0 146 0 146 177 0 c158 0 181 -2 219 -20z"/>
<path d="M1532 1265 c-73 -21 -104 -38 -142 -82 -33 -38 -86 -140 -77 -149 5
-5 190 -35 193 -31 1 1 9 17 18 35 9 18 31 42 49 52 60 37 190 20 216 -28 6
-12 11 -37 11 -57 0 -44 -5 -46 -186 -85 -73 -16 -155 -38 -183 -51 -205 -88
-183 -391 33 -454 112 -33 230 -6 315 70 43 39 43 40 59 -25 l8 -35 107 -3
c59 -1 107 -1 107 1 0 3 -8 24 -17 48 -14 36 -18 96 -23 334 -5 266 -7 294
-27 336 -23 52 -69 91 -134 115 -63 23 -258 29 -327 9z m268 -520 c0 -69 -2
-77 -30 -109 -40 -45 -106 -71 -162 -63 -75 10 -120 87 -88 148 16 29 61 48
173 74 56 12 103 23 105 24 1 1 2 -33 2 -74z"/>
<path d="M2132 1248 c3 -7 74 -197 158 -421 150 -398 153 -409 141 -445 -36
-102 -88 -137 -188 -129 l-64 5 5 -27 c3 -14 8 -52 11 -83 l6 -58 117 0 c92 0
126 4 157 19 51 23 99 72 127 130 12 25 97 264 188 531 l167 485 -110 3 c-60
1 -111 1 -113 -1 -2 -1 -40 -131 -85 -287 -45 -157 -85 -288 -88 -292 -4 -4
-51 125 -104 287 l-99 295 -115 0 c-88 0 -114 -3 -111 -12z"/>
</g>
</svg>
