<?xml version="1.0" standalone="no"?>
<!DOCTYPE svg PUBLIC "-//W3C//DTD SVG 20010904//EN"
 "http://www.w3.org/TR/2001/REC-SVG-20010904/DTD/svg10.dtd">
<svg version="1.0" xmlns="http://www.w3.org/2000/svg"
 width="300.000000pt" height="300.000000pt" viewBox="0 0 300.000000 300.000000"
 preserveAspectRatio="xMidYMid meet">
<metadata>
Created by potrace 1.15, written by Peter Selinger 2001-2017
</metadata>
<g transform="translate(0.000000,300.000000) scale(0.100000,-0.100000)"
fill="#000000" stroke="none">
<path d="M557 2159 c-55 -13 -94 -36 -149 -87 -80 -75 -83 -91 -83 -527 l0
-370 29 -63 c35 -75 87 -123 163 -152 100 -37 203 -22 265 40 l38 38 12 -39
11 -39 99 0 98 0 0 320 0 320 -180 0 -180 0 0 -90 0 -90 30 0 30 0 -1 -107
c-1 -132 -7 -155 -42 -167 -22 -8 -31 -6 -45 7 -15 16 -17 52 -20 390 -2 396
0 419 45 425 40 6 53 -31 53 -150 l0 -108 155 0 155 0 0 63 c0 91 -17 193 -39
236 -37 71 -121 129 -219 150 -61 13 -170 13 -225 0z"/>
<path d="M1150 1556 l0 -596 155 0 155 0 0 271 0 272 33 -7 c56 -11 57 -17 57
-288 l0 -248 145 0 145 0 0 238 c0 209 -3 242 -19 278 -20 44 -60 81 -98 90
-33 9 -28 21 11 28 50 10 83 48 97 114 14 67 7 229 -13 287 -17 53 -83 120
-133 135 -24 7 -138 14 -287 17 l-248 5 0 -596z m388 367 c7 -11 12 -51 12
-110 0 -103 -15 -133 -65 -133 l-25 0 0 136 0 137 33 -7 c17 -3 38 -14 45 -23z"/>
<path d="M1960 1556 l0 -596 155 0 155 0 0 271 0 272 33 -7 c56 -11 57 -17 57
-288 l0 -248 145 0 145 0 0 238 c0 209 -3 242 -19 278 -20 44 -60 81 -98 90
-33 9 -28 21 11 28 50 10 83 48 97 114 14 67 7 229 -13 287 -17 53 -83 120
-133 135 -24 7 -138 14 -287 17 l-248 5 0 -596z m388 367 c7 -11 12 -51 12
-110 0 -103 -15 -133 -65 -133 l-25 0 0 136 0 137 33 -7 c17 -3 38 -14 45 -23z"/>
</g>
</svg>
