<?xml version="1.0" standalone="no"?>
<!DOCTYPE svg PUBLIC "-//W3C//DTD SVG 20010904//EN"
 "http://www.w3.org/TR/2001/REC-SVG-20010904/DTD/svg10.dtd">
<svg version="1.0" xmlns="http://www.w3.org/2000/svg"
 width="300.000000pt" height="300.000000pt" viewBox="0 0 300.000000 300.000000"
 preserveAspectRatio="xMidYMid meet">
<metadata>
Created by potrace 1.15, written by Peter Selinger 2001-2017
</metadata>
<g transform="translate(0.000000,300.000000) scale(0.100000,-0.100000)"
fill="#000000" stroke="none">
<path d="M587 2160 c-107 -27 -192 -100 -224 -194 -16 -45 -18 -91 -18 -411 0
-321 2 -366 18 -412 25 -73 83 -134 159 -169 58 -27 72 -29 178 -29 103 0 121
3 170 26 126 59 168 127 181 289 10 136 10 455 0 591 -7 89 -13 115 -37 159
-56 103 -147 152 -293 156 -53 2 -113 -1 -134 -6z m144 -207 c21 -24 20 -772
0 -797 -19 -23 -53 -16 -68 14 -19 37 -14 760 6 783 17 22 45 22 62 0z"/>
<path d="M2175 2156 c-69 -17 -105 -38 -147 -84 -47 -53 -61 -116 -57 -258 4
-100 7 -114 35 -164 24 -43 50 -68 120 -117 49 -35 117 -83 151 -107 84 -60
96 -81 97 -170 1 -85 -18 -119 -63 -114 -39 5 -51 40 -51 151 l0 97 -141 0
-141 0 4 -127 c3 -105 8 -135 25 -168 29 -55 67 -89 138 -122 54 -25 71 -27
175 -28 170 0 272 43 322 137 20 39 23 57 23 183 0 229 -24 270 -249 420 -66
44 -129 92 -139 107 -27 36 -28 130 -2 158 46 50 85 7 85 -92 l0 -68 140 0
140 0 0 88 c0 143 -28 200 -119 246 -89 45 -237 59 -346 32z"/>
<path d="M1170 1555 l0 -595 243 0 c356 0 395 9 447 101 24 42 25 50 25 224 0
167 -2 183 -22 222 -17 32 -36 48 -82 71 l-59 29 39 13 c63 21 96 66 104 145
14 124 -20 260 -77 311 -65 60 -142 74 -410 74 l-208 0 0 -595z m386 370 c25
-25 26 -30 22 -121 -3 -105 -14 -124 -70 -124 l-28 0 0 135 0 135 25 0 c14 0
37 -11 51 -25z m8 -445 c6 -6 12 -64 14 -138 4 -144 -4 -166 -65 -178 l-33 -6
0 172 0 173 37 -6 c20 -4 41 -11 47 -17z"/>
</g>
</svg>
