<?xml version="1.0" standalone="no"?>
<!DOCTYPE svg PUBLIC "-//W3C//DTD SVG 20010904//EN"
 "http://www.w3.org/TR/2001/REC-SVG-20010904/DTD/svg10.dtd">
<svg version="1.0" xmlns="http://www.w3.org/2000/svg"
 width="72.000000pt" height="72.000000pt" viewBox="0 0 72.000000 72.000000"
 preserveAspectRatio="xMidYMid meet">

<g transform="translate(0.000000,72.000000) scale(0.100000,-0.100000)"
fill="#000000" stroke="none">
<path d="M512 551 c-7 -12 -23 -21 -35 -21 -17 0 -30 -11 -45 -39 -21 -36 -22
-51 -20 -173 3 -133 3 -133 26 -130 20 3 23 0 20 -20 -2 -19 2 -24 25 -26 15
-2 27 -9 27 -18 0 -8 7 -14 16 -14 8 0 13 4 10 9 -6 9 40 21 80 21 18 0 24 6
24 21 0 11 3 18 8 16 4 -3 17 -1 30 4 21 8 22 13 22 136 0 107 -3 133 -20 167
-26 52 -61 77 -114 83 -34 4 -43 1 -54 -16z m58 -21 c0 -5 -4 -10 -10 -10 -5
0 -10 5 -10 10 0 6 5 10 10 10 6 0 10 -4 10 -10z m30 -101 c6 -10 10 -22 10
-28 0 -18 -31 -41 -56 -41 -45 0 -53 74 -10 90 26 9 44 3 56 -21z"/>
<path d="M99 517 c-52 -35 -79 -82 -79 -139 0 -64 14 -89 99 -173 l71 -69 27
26 c16 14 45 41 67 61 63 58 76 84 76 154 0 56 -3 66 -31 98 -43 49 -78 65
-142 65 -40 0 -63 -6 -88 -23z m151 -42 c34 -17 60 -62 60 -100 0 -37 -22 -73
-74 -125 l-46 -44 -46 44 c-74 73 -88 113 -59 174 29 60 103 83 165 51z"/>
<path d="M135 425 c-64 -63 12 -163 93 -121 16 8 32 23 36 31 21 55 -18 115
-74 115 -19 0 -40 -9 -55 -25z m90 -29 c24 -36 5 -68 -38 -64 -27 3 -33 8 -35
33 -3 19 2 33 14 42 26 19 42 16 59 -11z"/>
</g>
</svg>
