<?xml version="1.0" standalone="no"?>
<!DOCTYPE svg PUBLIC "-//W3C//DTD SVG 20010904//EN"
 "http://www.w3.org/TR/2001/REC-SVG-20010904/DTD/svg10.dtd">
<svg version="1.0" xmlns="http://www.w3.org/2000/svg"
 width="114.000000pt" height="67.000000pt" viewBox="0 0 114.000000 67.000000"
 preserveAspectRatio="xMidYMid meet">

<g transform="translate(0.000000,67.000000) scale(0.100000,-0.100000)"
fill="#000000" stroke="none">
<path d="M170 600 c0 -17 -7 -20 -47 -22 -27 0 -56 -1 -66 0 -13 1 -17 -6 -17
-29 0 -18 5 -29 12 -28 7 1 25 1 41 0 27 -1 27 -2 27 -71 0 -40 -4 -70 -10
-70 -5 0 -10 -11 -10 -25 0 -14 5 -25 10 -25 6 0 10 -4 10 -9 0 -5 -9 -7 -20
-4 -14 4 -23 -2 -31 -21 -7 -14 -18 -26 -26 -26 -7 0 -13 -7 -13 -16 0 -9 -5
-12 -12 -8 -7 5 -9 2 -5 -8 3 -9 0 -21 -6 -27 -8 -8 -8 -11 2 -11 8 0 11 -6 7
-15 -3 -8 -1 -15 5 -15 6 0 8 -7 5 -16 -4 -12 -2 -15 9 -10 9 3 15 0 15 -9 0
-8 5 -15 10 -15 6 0 10 6 10 13 0 9 3 8 9 -2 5 -7 13 -11 19 -7 6 3 9 -7 8
-27 l-1 -32 78 -3 c44 -2 77 1 77 7 0 5 -4 11 -9 13 -8 3 -15 37 -12 66 1 6 8
12 16 12 11 0 15 -12 15 -51 l0 -50 118 4 c118 4 172 13 183 29 3 5 25 0 50
-11 66 -31 160 -28 227 5 55 27 119 93 128 131 4 13 10 23 15 23 5 0 9 52 9
115 0 92 -3 115 -14 115 -8 0 -16 7 -20 15 -3 8 -18 15 -33 15 -15 0 -35 5
-43 10 -10 7 25 10 108 10 l123 0 -3 28 -3 27 -345 0 c-308 0 -349 2 -382 18
-43 20 -138 20 -138 0 0 -18 -7 -16 -32 7 -12 11 -28 20 -35 20 -7 0 -13 -9
-13 -20z m218 -122 c19 -19 14 -56 -9 -68 -30 -17 -73 13 -63 43 11 36 48 49
72 25z m352 -46 c0 -13 -12 -22 -22 -16 -10 6 -1 24 13 24 5 0 9 -4 9 -8z m0
-196 c0 -3 -4 -8 -10 -11 -5 -3 -10 -1 -10 4 0 6 5 11 10 11 6 0 10 -2 10 -4z
m-640 -37 c0 -5 -7 -9 -15 -9 -15 0 -20 12 -9 23 8 8 24 -1 24 -14z"/>
</g>
</svg>
